<?xml version="1.0" standalone="no"?>
<!DOCTYPE svg PUBLIC "-//W3C//DTD SVG 20010904//EN"
 "http://www.w3.org/TR/2001/REC-SVG-20010904/DTD/svg10.dtd">
<svg version="1.0" xmlns="http://www.w3.org/2000/svg"
 width="535.000000pt" height="535.000000pt" viewBox="0 0 535.000000 535.000000"
 preserveAspectRatio="xMidYMid meet">
<metadata>
Created by potrace 1.14, written by Peter Selinger 2001-2017
</metadata>
<g transform="translate(0.000000,535.000000) scale(0.100000,-0.100000)"
fill="#000000" stroke="none">
<path d="M578 4991 c-39 -13 -110 -64 -148 -107 -42 -48 -75 -124 -85 -191 -6
-47 -10 -53 -30 -53 -25 0 -130 -37 -154 -55 -37 -26 -110 -108 -125 -139 -43
-91 -40 -229 6 -319 32 -60 100 -124 166 -155 49 -23 70 -27 147 -27 92 1 131
12 197 57 l28 19 87 -83 c80 -76 127 -120 249 -235 22 -21 89 -82 147 -137 99
-91 129 -135 95 -137 -7 0 -151 -1 -320 -2 -293 -2 -308 -3 -335 -23 -43 -32
-65 -81 -60 -139 3 -51 37 -117 67 -132 8 -4 163 -10 345 -13 l330 -5 11 -80
c13 -88 39 -199 54 -230 5 -11 18 -42 29 -70 26 -68 88 -195 105 -214 7 -9 21
-30 30 -48 40 -79 240 -305 359 -406 l29 -24 -30 -29 c-33 -33 -221 -207 -250
-233 -18 -15 -192 -177 -332 -307 -36 -34 -82 -77 -104 -97 l-39 -35 -36 21
c-20 12 -38 24 -41 28 -12 17 -106 31 -184 27 -66 -3 -94 -10 -137 -32 -66
-35 -122 -93 -157 -166 -23 -47 -27 -68 -27 -145 0 -78 4 -98 28 -149 51 -105
137 -171 258 -197 l46 -10 7 -54 c20 -171 151 -294 324 -303 92 -5 151 10 219
55 75 50 128 127 148 217 9 40 14 84 11 99 -10 59 -38 140 -52 154 -20 21 -18
27 24 64 20 18 79 71 130 118 51 47 97 87 102 89 4 2 13 -25 19 -60 15 -87 76
-239 130 -323 46 -73 171 -201 219 -226 15 -8 29 -17 32 -21 13 -17 162 -77
243 -98 164 -42 457 -42 632 0 95 23 267 100 325 147 105 84 213 223 240 308
7 22 16 45 20 50 11 16 50 146 50 169 1 55 16 50 101 -31 46 -44 103 -97 127
-119 l43 -39 -28 -60 c-24 -52 -27 -72 -27 -155 0 -117 22 -170 99 -246 63
-61 105 -82 189 -95 194 -30 368 92 400 283 l12 72 55 11 c116 24 218 107 258
211 33 86 30 201 -8 279 -84 180 -287 252 -472 169 -33 -15 -59 -31 -59 -35 0
-19 -27 -7 -70 32 -25 23 -107 101 -184 173 -76 72 -150 142 -165 155 -14 13
-82 77 -151 141 -69 65 -141 132 -160 149 l-35 32 45 37 c151 122 319 318 413
479 92 158 182 418 189 541 l2 42 50 0 c463 1 623 6 641 18 46 31 60 64 60
138 0 63 -3 75 -25 97 -14 13 -36 28 -50 32 -14 5 -167 9 -340 10 -173 2 -318
3 -322 4 -5 1 -8 11 -8 24 0 16 32 52 106 122 59 55 110 102 114 105 4 3 68
62 141 131 228 215 206 200 247 171 41 -28 101 -48 178 -57 46 -6 158 28 212
65 100 68 145 157 145 292 0 73 -4 94 -26 140 -51 103 -127 165 -238 194 l-67
18 -6 50 c-13 114 -102 231 -214 284 -77 35 -197 35 -273 0 -80 -37 -140 -96
-179 -175 -30 -60 -34 -78 -34 -148 0 -71 4 -88 33 -149 l33 -69 -53 -50 c-30
-27 -106 -97 -169 -156 -62 -58 -125 -116 -138 -129 -13 -12 -27 -23 -31 -25
-4 -1 -35 34 -68 78 -67 88 -175 197 -268 272 -33 26 -61 51 -63 55 -2 4 -8 8
-14 8 -6 0 -33 16 -61 36 -85 61 -248 138 -367 173 -41 12 -88 26 -105 31
-113 34 -430 45 -600 21 -146 -21 -292 -65 -425 -129 -217 -103 -419 -270
-560 -462 -34 -47 -63 -86 -64 -87 -2 -2 -52 44 -232 212 -64 61 -130 122
-147 137 -27 25 -29 30 -18 50 7 13 22 41 34 63 17 32 21 57 21 130 0 78 -3
98 -28 147 -32 68 -84 123 -152 163 -45 27 -58 30 -154 32 -58 1 -117 -2 -132
-6z"/>
</g>
</svg>
