<?xml version="1.0" standalone="no"?>
<!DOCTYPE svg PUBLIC "-//W3C//DTD SVG 20010904//EN"
 "http://www.w3.org/TR/2001/REC-SVG-20010904/DTD/svg10.dtd">
<svg version="1.0" xmlns="http://www.w3.org/2000/svg"
 width="650.000000pt" height="650.000000pt" viewBox="0 0 650.000000 650.000000"
 preserveAspectRatio="xMidYMid meet">
<metadata>
Created by potrace 1.14, written by Peter Selinger 2001-2017
</metadata>
<g transform="translate(0.000000,650.000000) scale(0.100000,-0.100000)"
fill="#000000" stroke="none">
<path d="M4507 5021 c-30 -15 -116 -95 -147 -137 -46 -62 -60 -84 -60 -94 0
-5 -3 -10 -8 -10 -7 0 -25 -30 -38 -62 -3 -10 -11 -18 -16 -18 -5 0 -6 -4 -3
-10 3 -5 1 -10 -4 -10 -6 0 -10 -3 -9 -7 3 -11 -32 -76 -46 -85 -6 -4 -7 -8
-3 -8 8 0 -48 -109 -62 -120 -3 -3 -7 -11 -9 -18 -1 -8 -11 -26 -21 -40 -43
-61 -95 -148 -93 -154 1 -5 -4 -8 -11 -8 -6 0 -23 -16 -37 -34 -14 -19 -28
-32 -32 -29 -5 2 -8 -1 -8 -7 0 -6 -11 -16 -25 -22 -13 -6 -27 -18 -30 -27 -3
-9 -14 -17 -25 -17 -17 0 -43 35 -85 117 -5 10 -13 19 -17 19 -5 0 -8 4 -8 10
0 9 -19 35 -47 65 -7 8 -13 18 -13 22 0 5 -12 20 -26 32 -22 19 -24 25 -13 36
8 8 21 15 29 17 8 2 21 9 28 16 8 7 18 10 23 7 5 -4 9 -1 9 5 0 6 5 8 10 5 6
-3 10 -1 10 5 0 6 5 8 10 5 6 -3 10 -1 10 5 0 6 4 9 8 6 5 -3 23 4 40 15 18
10 39 19 47 19 8 0 15 4 15 9 0 5 13 11 29 14 16 3 35 12 43 19 7 7 19 14 26
16 41 8 58 73 32 122 -9 16 -62 37 -82 32 -5 -1 -8 1 -8 5 0 5 -20 8 -45 8
-25 0 -45 -4 -45 -9 0 -5 -3 -6 -6 -3 -4 3 -16 1 -28 -5 -11 -7 -24 -11 -28
-10 -5 1 -8 -2 -8 -8 0 -5 -6 -10 -14 -10 -8 0 -16 -4 -18 -9 -1 -5 -10 -11
-18 -13 -8 -2 -23 -11 -33 -20 -11 -9 -34 -24 -51 -33 -41 -21 -67 -37 -85
-53 -12 -12 -16 -11 -24 5 -6 10 -21 29 -34 43 -13 14 -23 31 -23 38 0 7 -4
10 -10 7 -5 -3 -10 1 -10 9 0 9 -4 16 -10 16 -5 0 -10 7 -10 15 0 8 -3 15 -7
15 -5 0 -28 18 -53 40 -42 37 -49 41 -66 39 -4 0 -10 4 -13 9 -10 17 -159 92
-181 92 -11 0 -20 5 -20 11 0 6 -6 9 -12 6 -7 -2 -22 -1 -33 3 -49 17 -77 21
-69 9 5 -8 3 -9 -7 -3 -21 13 -36 14 -144 13 -55 -1 -112 -1 -127 -1 -15 0
-26 -4 -23 -8 2 -4 -7 -6 -20 -4 -14 1 -27 -1 -30 -6 -3 -4 -14 -6 -24 -3 -10
3 -22 0 -25 -6 -4 -6 -18 -11 -31 -11 -13 0 -27 -5 -30 -11 -4 -6 -13 -8 -21
-5 -8 3 -14 1 -14 -5 0 -6 -4 -7 -10 -4 -5 3 -10 1 -10 -5 0 -6 -4 -9 -10 -5
-5 3 -18 -2 -28 -12 -10 -10 -25 -19 -33 -21 -8 -2 -24 -10 -36 -18 -13 -8
-26 -15 -30 -16 -5 0 -13 -8 -20 -17 -7 -9 -13 -13 -13 -9 0 14 -135 -114
-180 -171 -14 -17 -31 -38 -38 -46 -7 -8 -10 -15 -6 -15 4 0 0 -8 -8 -17 -22
-25 -36 -83 -32 -129 8 -88 12 -111 23 -152 7 -23 9 -46 6 -51 -3 -5 1 -11 7
-13 7 -3 1 -7 -14 -10 -14 -3 -41 2 -60 10 -18 8 -36 16 -40 17 -5 2 -11 4
-15 5 -5 1 -11 2 -15 1 -5 0 -8 3 -8 7 0 5 -17 17 -38 26 -27 12 -42 27 -50
50 -7 17 -27 49 -46 69 -18 20 -32 37 -29 37 2 0 -9 12 -26 26 -17 14 -29 29
-26 34 2 4 -4 15 -15 25 -11 10 -20 22 -20 27 0 13 -41 51 -73 68 -36 18 -121
17 -144 -1 -15 -12 -16 -12 -8 1 4 8 -12 -5 -37 -30 -25 -25 -45 -47 -45 -50
0 -3 -2 -8 -3 -12 -1 -5 -4 -12 -5 -18 -1 -5 -4 -12 -5 -15 -1 -3 -4 -9 -5
-15 -1 -5 -3 -11 -4 -12 -1 -2 -4 -21 -7 -43 -2 -22 -6 -49 -8 -60 -3 -11 -5
-24 -5 -29 -1 -5 -4 -7 -7 -3 -8 8 -95 -42 -135 -78 -70 -63 -99 -156 -68
-220 16 -33 44 -65 58 -65 5 0 11 -3 13 -8 7 -17 87 -38 145 -37 35 0 63 -4
63 -8 0 -5 6 -5 13 0 17 11 29 11 51 0 11 -5 16 -5 13 0 -3 5 13 10 35 10 49
1 158 32 158 45 0 5 4 7 9 4 9 -6 61 48 61 64 0 5 5 10 11 10 5 0 7 5 4 10 -3
6 3 10 14 10 12 0 21 -5 21 -11 0 -5 3 -8 8 -5 4 2 31 -4 60 -14 28 -10 52
-16 52 -13 0 3 6 1 13 -5 6 -6 14 -10 17 -10 7 2 83 -23 95 -31 11 -6 17 -8
39 -10 8 0 21 -7 28 -14 7 -7 15 -14 18 -14 3 0 15 -3 27 -7 21 -7 21 -8 5
-25 -9 -10 -19 -18 -22 -18 -12 1 -60 -27 -60 -35 0 -4 -3 -7 -7 -6 -13 3 -66
-26 -90 -48 -33 -30 -74 -94 -68 -104 3 -4 -1 -10 -7 -12 -9 -3 -13 -26 -13
-65 0 -53 4 -64 24 -82 14 -12 31 -19 38 -16 8 2 11 0 8 -5 -14 -23 96 -14
140 11 19 12 35 18 35 15 0 -3 9 2 19 12 47 43 81 71 81 68 0 -3 26 22 57 54
62 65 73 65 93 4 6 -19 16 -34 21 -34 5 0 9 -9 9 -19 0 -11 6 -26 13 -33 6 -7
21 -30 31 -51 11 -20 24 -37 29 -37 6 0 8 -3 4 -6 -5 -6 17 -36 59 -80 12 -13
19 -25 16 -28 -3 -3 0 -6 6 -6 6 0 22 -10 35 -22 51 -47 73 -64 90 -71 9 -3
17 -11 17 -17 0 -5 7 -10 15 -10 8 0 15 -5 15 -10 0 -6 3 -9 8 -8 12 3 62 -24
62 -34 0 -4 9 -8 19 -8 11 0 22 -4 26 -9 3 -5 19 -12 35 -16 30 -7 38 -19 20
-30 -6 -4 -8 -10 -5 -15 3 -5 1 -19 -4 -32 -29 -78 -39 -125 -47 -228 -3 -41
-8 -86 -11 -100 -2 -14 -4 -36 -4 -49 1 -24 -50 -121 -81 -155 -10 -11 -24
-32 -30 -48 -7 -15 -16 -28 -20 -28 -5 0 -8 -4 -8 -9 0 -8 -34 -51 -72 -92
-10 -11 -18 -22 -18 -25 0 -3 -18 -23 -40 -45 -22 -22 -40 -36 -40 -32 0 4 -7
-2 -15 -13 -13 -16 -16 -17 -25 -4 -5 8 -10 11 -10 7 0 -4 -9 -3 -19 3 -37 19
-137 20 -176 0 -19 -10 -32 -13 -28 -6 6 10 -21 -10 -55 -41 -7 -7 -18 -16
-25 -20 -11 -7 -36 -36 -89 -101 -27 -34 -58 -99 -62 -131 -7 -59 42 -130 94
-138 8 -1 27 -4 43 -6 15 -2 27 -1 27 2 0 3 12 7 28 8 50 3 72 7 72 15 0 4 6
5 13 3 8 -4 12 -31 11 -90 0 -47 3 -85 8 -85 4 0 8 -6 8 -13 0 -21 114 -97
145 -97 8 0 15 -5 15 -11 0 -8 5 -8 15 1 11 9 15 9 15 1 0 -7 5 -9 13 -4 6 4
19 8 27 8 19 1 69 28 95 52 38 34 50 71 61 172 3 30 8 59 11 64 2 4 6 18 8 30
5 26 13 61 15 65 2 1 3 5 5 10 1 4 5 21 10 37 5 17 17 45 27 63 10 19 13 30 6
26 -6 -4 -2 6 10 23 12 17 19 33 15 37 -3 3 1 6 10 6 9 0 17 -3 18 -7 1 -9 3
-22 19 -122 6 -35 18 -83 26 -108 18 -54 80 -152 100 -160 7 -3 12 -8 9 -13
-2 -4 7 -13 20 -20 14 -7 25 -17 25 -22 0 -5 5 -6 10 -3 6 3 10 0 10 -8 0 -8
18 -20 40 -27 22 -7 40 -17 40 -22 0 -4 8 -8 18 -8 10 0 23 -5 30 -12 9 -9 12
-9 12 1 0 9 4 10 13 4 16 -13 128 -16 146 -4 10 6 22 6 34 -1 12 -6 17 -6 13
0 -5 9 17 19 49 22 6 1 18 9 28 17 9 9 17 12 17 7 0 -5 5 -1 11 8 5 10 15 18
21 18 6 0 19 10 29 22 11 11 19 18 19 15 0 -7 115 108 173 172 20 23 37 44 37
47 0 3 5 10 10 17 6 7 22 26 36 42 14 17 32 44 41 60 9 17 19 32 23 35 13 9
39 67 33 74 -4 3 -2 6 4 6 6 0 14 17 18 38 4 20 6 37 5 37 -1 0 3 13 9 28 6
15 13 42 16 60 3 18 8 39 10 47 2 8 6 37 10 64 3 27 9 54 13 60 4 6 7 16 7 21
0 12 34 14 58 3 11 -6 17 -5 17 3 0 8 4 8 15 -1 12 -10 15 -10 15 0 0 9 3 10
13 1 10 -8 17 -7 25 1 9 9 12 9 12 0 0 -10 5 -10 20 -2 12 7 20 7 20 1 0 -10
32 -7 52 5 6 4 8 3 5 -2 -3 -6 31 -10 83 -11 108 -2 250 -42 272 -76 6 -9 8
-9 8 1 0 17 97 -83 97 -100 0 -39 69 -148 93 -148 6 0 10 -5 10 -12 0 -6 3 -8
7 -5 3 4 12 2 20 -4 7 -6 13 -8 13 -4 0 4 8 1 17 -6 15 -12 16 -12 8 1 -7 12
-6 13 7 3 8 -7 17 -11 20 -8 2 2 21 7 42 11 77 12 183 92 223 169 31 59 15
147 -38 203 -17 19 -18 22 -3 34 52 42 124 119 125 135 4 49 -4 89 -24 117
-25 36 -47 60 -47 51 0 -3 -10 3 -22 15 -19 17 -50 26 -61 18 -2 -2 -12 3 -21
11 -14 12 -19 12 -26 2 -4 -8 -12 -11 -18 -7 -6 3 -13 2 -17 -4 -4 -6 -10 -8
-15 -5 -5 3 -11 1 -15 -5 -4 -6 -10 -8 -15 -5 -5 3 -11 1 -15 -5 -4 -6 -11 -8
-16 -5 -5 4 -9 1 -9 -4 0 -6 -3 -10 -7 -9 -9 1 -28 -6 -93 -35 -25 -12 -48
-20 -52 -19 -5 1 -8 -2 -8 -8 0 -5 -7 -10 -15 -10 -8 0 -15 -5 -15 -10 0 -6
-3 -9 -7 -9 -22 4 -33 -2 -27 -13 4 -7 4 -10 -1 -6 -4 4 -16 3 -26 -3 -15 -7
-21 -6 -25 5 -3 8 -14 13 -25 11 -12 -3 -19 2 -19 12 0 9 -3 13 -6 10 -4 -4
-19 2 -34 13 -16 11 -33 20 -39 20 -6 0 -11 5 -11 10 0 6 -6 10 -13 10 -8 0
-22 9 -32 20 -10 11 -23 20 -30 20 -6 0 -45 22 -86 49 -58 38 -77 46 -88 37
-11 -8 -13 -8 -8 1 8 14 -43 54 -72 56 -11 0 -17 5 -15 9 3 4 -7 10 -21 14
-14 3 -25 11 -25 17 0 6 -3 8 -6 4 -4 -3 -19 0 -35 9 -32 16 -39 53 -16 96 7
13 12 51 12 83 -1 51 3 62 28 89 27 30 52 73 49 88 -1 4 -3 21 -4 37 -1 17 -6
31 -10 31 -4 0 -7 3 -6 8 5 15 -35 68 -68 90 -38 25 -48 28 -38 10 4 -7 -1 -5
-11 4 -10 9 -19 25 -20 35 -3 37 -18 90 -38 137 l-21 49 32 28 c18 16 30 29
27 29 -3 0 6 11 21 25 15 14 24 25 20 25 -4 0 7 15 26 34 18 19 47 52 63 74
17 22 42 48 57 58 15 10 24 22 22 26 -3 4 0 8 5 8 11 0 26 11 94 72 23 21 48
38 55 38 7 0 11 3 9 8 -6 9 19 33 27 25 3 -3 8 2 12 11 3 9 10 14 14 11 5 -3
16 2 25 11 18 19 110 56 118 48 3 -4 12 -2 19 2 7 5 26 9 43 11 16 1 31 7 33
12 2 6 9 11 14 11 17 0 68 61 70 84 8 103 -5 152 -54 195 -34 29 -34 38 -6 92
22 42 29 131 15 189 -3 14 -6 28 -6 33 -1 4 -8 7 -16 7 -8 0 -15 7 -15 15 0 8
-9 15 -20 15 -11 0 -20 3 -20 8 0 13 -71 8 -103 -7z m-1707 -2836 c0 -8 -4
-15 -10 -15 -5 0 -7 7 -4 15 4 8 8 15 10 15 2 0 4 -7 4 -15z m-51 -84 c-6 -18
-13 -30 -15 -28 -2 2 1 18 7 36 6 18 13 30 15 28 2 -2 -1 -18 -7 -36z m-44
-90 c3 -5 2 -12 -3 -15 -5 -3 -9 1 -9 9 0 17 3 19 12 6z m-411 -202 c-8 -16
-16 -29 -17 -29 -3 0 -1 71 2 79 0 2 8 -2 16 -9 13 -11 13 -15 -1 -41z"/>
</g>
</svg>
